<?xml version="1.0" encoding="utf-8"?>
<!-- Generator: Adobe Illustrator 21.1.0, SVG Export Plug-In . SVG Version: 6.00 Build 0)  -->
<svg version="1.1" id="Layer_1" xmlns="http://www.w3.org/2000/svg" xmlns:xlink="http://www.w3.org/1999/xlink" x="0px" y="0px"
	 viewBox="0 0 625 133.4" style="enable-background:new 0 0 625 133.4;" xml:space="preserve">
<style type="text/css">
	.st0{fill:#706D6E;}
	.st1{fill:#F1511B;}
	.st2{fill:#80CC28;}
	.st3{fill:#00ADEF;}
	.st4{fill:#FBBC09;}
</style>
<path class="st0" d="M625,60.4v-11h-13.6V32.3l-0.5,0.1l-12.8,3.9l-0.3,0.1v12.9h-20.2v-7.2c0-3.4,0.8-5.9,2.2-7.6
	c1.5-1.7,3.6-2.6,6.3-2.6c1.9,0,3.9,0.5,5.9,1.3l0.5,0.2V22l-0.2-0.1c-1.9-0.7-4.4-1-7.6-1c-4,0-7.6,0.9-10.8,2.6
	c-3.2,1.7-5.6,4.2-7.4,7.3c-1.7,3.1-2.6,6.7-2.6,10.7v7.9h-9.5v11h9.5v46.3h13.6V60.4h20.2v29.4c0,12.1,5.7,18.3,17,18.3
	c1.9,0,3.8-0.2,5.8-0.6c2-0.4,3.4-0.9,4.2-1.3l0.2-0.1V94.9l-0.6,0.4c-0.7,0.5-1.7,0.9-2.7,1.2c-1.1,0.3-2,0.5-2.7,0.5
	c-2.6,0-4.6-0.7-5.8-2.1c-1.2-1.4-1.8-3.9-1.8-7.4V60.4H625L625,60.4z M524,96.9c-5,0-8.9-1.6-11.6-4.9c-2.8-3.3-4.2-7.9-4.2-13.8
	c0-6.1,1.4-10.8,4.2-14.1c2.8-3.3,6.6-5,11.5-5c4.7,0,8.5,1.6,11.2,4.7c2.7,3.2,4.1,7.9,4.1,14c0,6.2-1.3,11-3.8,14.2
	C532.8,95.3,528.9,96.9,524,96.9 M524.6,48c-9.4,0-17,2.8-22.3,8.2c-5.3,5.5-8.1,13-8.1,22.5c0,9,2.6,16.2,7.9,21.4
	c5.2,5.3,12.3,7.9,21.1,7.9c9.2,0,16.5-2.8,21.9-8.3c5.3-5.5,8.1-13,8.1-22.2c0-9.1-2.5-16.4-7.6-21.6C540.5,50.6,533.5,48,524.6,48
	 M472.2,48c-6.4,0-11.7,1.6-15.8,4.9c-4.1,3.3-6.2,7.5-6.2,12.7c0,2.7,0.4,5.1,1.3,7.1c0.9,2,2.3,3.8,4.1,5.3
	c1.8,1.5,4.6,3.1,8.3,4.6c3.1,1.3,5.4,2.4,6.9,3.2c1.4,0.8,2.5,1.7,3,2.5c0.6,0.8,0.8,1.9,0.8,3.2c0,3.8-2.9,5.7-8.8,5.7
	c-2.2,0-4.7-0.5-7.5-1.4c-2.7-0.9-5.3-2.2-7.6-3.9l-0.6-0.4v13.1l0.2,0.1c1.9,0.9,4.4,1.6,7.2,2.2c2.9,0.6,5.5,0.9,7.7,0.9
	c7,0,12.6-1.7,16.7-4.9c4.1-3.3,6.2-7.7,6.2-13c0-3.9-1.1-7.2-3.3-9.8c-2.2-2.6-6-5.1-11.4-7.2c-4.2-1.7-7-3.1-8.1-4.2
	c-1.1-1-1.6-2.5-1.6-4.4c0-1.7,0.7-3,2.1-4.1c1.4-1.1,3.4-1.6,5.8-1.6c2.3,0,4.6,0.4,6.9,1.1c2.3,0.7,4.3,1.6,6,2.8l0.6,0.4V50.5
	l-0.2-0.1c-1.6-0.7-3.6-1.2-6.1-1.7C476.4,48.2,474.2,48,472.2,48 M414.7,96.9c-5,0-8.9-1.6-11.6-4.9c-2.8-3.3-4.2-7.9-4.2-13.8
	c0-6.1,1.4-10.8,4.2-14.1c2.8-3.3,6.6-5,11.5-5c4.7,0,8.5,1.6,11.2,4.7c2.7,3.2,4.1,7.9,4.1,14c0,6.2-1.3,11-3.8,14.2
	C423.5,95.3,419.7,96.9,414.7,96.9 M415.3,48c-9.5,0-17,2.8-22.3,8.2c-5.3,5.5-8.1,13-8.1,22.5c0,9,2.6,16.2,7.9,21.4
	c5.2,5.3,12.3,7.9,21.1,7.9c9.2,0,16.5-2.8,21.9-8.3c5.3-5.5,8.1-13,8.1-22.2c0-9.1-2.5-16.4-7.6-21.6C431.2,50.6,424.2,48,415.3,48
	 M364.2,59.3v-9.9h-13.5v57.3h13.5V77.4c0-5,1.1-9.1,3.4-12.2c2.2-3.1,5.1-4.6,8.7-4.6c1.2,0,2.6,0.2,4.1,0.6
	c1.5,0.4,2.5,0.8,3.1,1.3l0.6,0.4V49.3l-0.2-0.1c-1.3-0.5-3-0.8-5.3-0.8c-3.4,0-6.4,1.1-9,3.2c-2.3,1.9-3.9,4.5-5.2,7.7H364.2z
	 M326.6,48c-6.2,0-11.7,1.3-16.4,3.9c-4.7,2.6-8.3,6.4-10.8,11.1c-2.5,4.7-3.7,10.3-3.7,16.5c0,5.4,1.2,10.4,3.6,14.8
	c2.4,4.4,5.8,7.8,10.1,10.2c4.3,2.4,9.2,3.6,14.7,3.6c6.4,0,11.9-1.3,16.3-3.8l0.2-0.1V91.8l-0.6,0.4c-2,1.4-4.2,2.6-6.6,3.4
	c-2.4,0.8-4.6,1.3-6.5,1.3c-5.3,0-9.5-1.7-12.6-4.9c-3.1-3.3-4.7-7.9-4.7-13.6c0-5.8,1.6-10.5,4.9-14c3.2-3.5,7.5-5.2,12.6-5.2
	c4.4,0,8.7,1.5,12.8,4.5l0.6,0.4V51l-0.2-0.1c-1.5-0.9-3.6-1.6-6.2-2.1C331.5,48.3,329,48,326.6,48 M286.4,49.4h-13.5v57.3h13.5
	V49.4L286.4,49.4z M279.8,25c-2.2,0-4.2,0.8-5.7,2.3c-1.6,1.5-2.4,3.4-2.4,5.6c0,2.2,0.8,4,2.4,5.5c1.6,1.5,3.5,2.2,5.8,2.2
	c2.3,0,4.2-0.7,5.8-2.2c1.6-1.5,2.4-3.3,2.4-5.5c0-2.2-0.8-4-2.3-5.6C284.1,25.7,282.1,25,279.8,25 M246.2,45.1v61.5h13.8V26.7h-19
	l-24.2,59.4l-23.5-59.4h-19.8v79.9h12.9V45.1h0.4l24.8,61.5h9.8l24.4-61.5L246.2,45.1L246.2,45.1z"/>
<path class="st1" d="M63.4,63.4H0V0h63.4V63.4z"/>
<path class="st2" d="M133.4,63.4H70V0h63.4L133.4,63.4L133.4,63.4z"/>
<path class="st3" d="M63.4,133.4H0V70h63.4V133.4z"/>
<path class="st4" d="M133.4,133.4H70V70h63.4L133.4,133.4L133.4,133.4z"/>
</svg>
