<?xml version="1.0" encoding="utf-8"?>
<!-- Generator: Adobe Illustrator 21.1.0, SVG Export Plug-In . SVG Version: 6.00 Build 0)  -->
<svg version="1.1" id="Layer_1" xmlns="http://www.w3.org/2000/svg" xmlns:xlink="http://www.w3.org/1999/xlink" x="0px" y="0px"
	 viewBox="0 0 680 172.5" style="enable-background:new 0 0 680 172.5;" xml:space="preserve">
<style type="text/css">
	.st0{fill:#253B80;}
	.st1{fill:#263A7F;}
	.st2{fill:#179BD7;}
	.st3{fill:#232C64;}
</style>
<g id="logo-paypal">
	<path id="path14499" class="st0" d="M124.4,13c-8-9.1-22.4-13-40.9-13H30c-3.8,0-7,2.7-7.6,6.5L0.1,148c-0.4,2.8,1.7,5.3,4.5,5.3
		h33.1l8.3-52.7l-0.3,1.7c0.6-3.7,3.8-6.5,7.6-6.5H69c30.9,0,55.1-12.5,62.1-48.8c0.2-1.1,0.4-2.1,0.5-3.1c-0.9-0.5-0.9-0.5,0,0
		C133.8,30.4,131.7,21.3,124.4,13"/>
	<path id="path14519" class="st1" d="M466.3,79.9h-17.8c-1.7,0-3.3,0.8-4.3,2.3l-24.6,36.2l-10.4-34.8c-0.7-2.2-2.7-3.7-4.9-3.7
		h-17.5c-2.1,0-3.6,2.1-2.9,4.1l19.6,57.6l-18.4,26c-1.4,2,0,4.9,2.5,4.9h17.8c1.7,0,3.3-0.8,4.2-2.2l59.2-85.5
		C470.3,82.7,468.8,79.9,466.3,79.9 M347.3,114.4c-1.7,10.1-9.7,16.9-20,16.9c-5.1,0-9.3-1.7-11.9-4.8c-2.6-3.1-3.6-7.5-2.8-12.4
		c1.6-10,9.8-17.1,19.9-17.1c5,0,9.1,1.7,11.8,4.8C347,105.1,348,109.5,347.3,114.4 M372,79.9h-17.7c-1.5,0-2.8,1.1-3,2.6l-0.8,5
		l-1.2-1.8c-3.8-5.6-12.4-7.4-20.9-7.4c-19.6,0-36.3,14.8-39.6,35.6c-1.7,10.4,0.7,20.3,6.6,27.2c5.4,6.4,13.1,9,22.3,9
		c15.8,0,24.5-10.1,24.5-10.1l-0.8,4.9c-0.3,1.9,1.1,3.6,3,3.6h16c2.5,0,4.7-1.8,5.1-4.3l9.6-60.7C375.3,81.6,373.9,79.9,372,79.9
		 M265.6,80.4c-2,13.3-12.2,13.3-22,13.3h-5.6l3.9-24.8c0.2-1.5,1.5-2.6,3-2.6h2.6c6.7,0,13,0,16.2,3.8
		C265.8,72.3,266.4,75.7,265.6,80.4 M261.4,45.7h-37c-2.5,0-4.7,1.8-5.1,4.3l-15,94.9c-0.3,1.9,1.1,3.6,3,3.6H225
		c2.5,0,4.7-1.8,5.1-4.3l4-25.6c0.4-2.5,2.5-4.3,5.1-4.3h11.7c24.4,0,38.4-11.8,42.1-35.2c1.7-10.2,0.1-18.3-4.7-23.9
		C283.1,49,273.7,45.7,261.4,45.7"/>
	<path id="path14523" class="st2" d="M656.8,48.3l-15.2,96.6c-0.3,1.9,1.2,3.6,3,3.6h15.3c2.5,0,4.7-1.8,5.1-4.3l15-94.9
		c0.3-1.9-1.2-3.6-3-3.6h-17.1C658.3,45.7,657,46.8,656.8,48.3 M611.2,114.4c-1.7,10.1-9.7,16.9-20,16.9c-5.1,0-9.3-1.7-11.9-4.8
		c-2.6-3.1-3.6-7.5-2.8-12.4c1.6-10,9.8-17.1,19.9-17.1c5,0,9.1,1.7,11.8,4.8C610.9,105.1,612,109.5,611.2,114.4 M635.9,79.9h-17.7
		c-1.5,0-2.8,1.1-3,2.6l-0.8,5l-1.2-1.8c-3.8-5.6-12.4-7.4-20.9-7.4c-19.6,0-36.3,14.8-39.6,35.6c-1.7,10.4,0.7,20.3,6.6,27.2
		c5.4,6.4,13.1,9,22.3,9c15.8,0,24.5-10.1,24.5-10.1l-0.8,4.9c-0.3,1.9,1.2,3.6,3,3.6h16c2.5,0,4.7-1.8,5.1-4.3l9.6-60.7
		C639.2,81.6,637.8,79.9,635.9,79.9 M529.6,80.4c-2,13.3-12.2,13.3-22,13.3H502l3.9-24.8c0.2-1.5,1.5-2.6,3-2.6h2.6
		c6.7,0,13,0,16.2,3.8C529.7,72.3,530.3,75.7,529.6,80.4 M525.3,45.7h-37c-2.5,0-4.7,1.8-5.1,4.3l-15,94.9c-0.3,1.9,1.2,3.6,3,3.6
		h19c1.8,0,3.3-1.3,3.6-3l4.2-26.9c0.4-2.5,2.5-4.3,5.1-4.3h11.7c24.4,0,38.4-11.8,42.1-35.2c1.7-10.2,0.1-18.3-4.7-23.9
		C547,49,537.7,45.7,525.3,45.7"/>
	<path id="path14527" class="st0" d="M124.4,13c-8-9.1-22.4-13-40.9-13H30c-3.8,0-7,2.7-7.6,6.5L0.1,148c-0.4,2.8,1.7,5.3,4.5,5.3
		h33.1l8.3-52.7l-0.3,1.7c0.6-3.7,3.8-6.5,7.6-6.5H69c30.9,0,55.1-12.5,62.1-48.8c0.2-1.1,0.4-2.1,0.5-3.1c-0.9-0.5-0.9-0.5,0,0
		C133.8,30.4,131.7,21.3,124.4,13"/>
	<path id="path14531" class="st1" d="M54.9,44c0.4-2.2,1.8-4.1,3.7-5c0.9-0.4,1.9-0.7,2.9-0.7h42c5,0,9.6,0.3,13.9,1
		c1.2,0.2,2.4,0.4,3.5,0.7c1.1,0.3,2.3,0.5,3.3,0.9c0.5,0.2,1.1,0.3,1.6,0.5c2.1,0.7,4,1.5,5.8,2.5c2.1-13.4,0-22.5-7.3-30.8
		c-8-9.1-22.4-13-40.9-13H30c-3.8,0-7,2.7-7.6,6.5L0.1,148c-0.4,2.8,1.7,5.3,4.5,5.3h33.1l8.3-52.7L54.9,44L54.9,44z"/>
	<path id="path14535" class="st2" d="M131.7,43.8L131.7,43.8c-0.2,1-0.3,2.1-0.5,3.1C124.1,83.3,99.9,95.8,69,95.8H53.3
		c-3.8,0-7,2.7-7.5,6.5l-8.1,51.1l-2.3,14.5c-0.4,2.4,1.5,4.7,4,4.7h27.9c3.3,0,6.1-2.4,6.6-5.7l0.3-1.4l5.3-33.3l0.3-1.8
		c0.5-3.3,3.3-5.7,6.6-5.7h4.2c27,0,48.2-11,54.4-42.7c2.6-13.3,1.2-24.3-5.6-32.1C137.3,47.4,134.7,45.4,131.7,43.8"/>
	<path id="path14539" class="st3" d="M124.3,40.9c-1.1-0.3-2.2-0.6-3.3-0.9s-2.3-0.5-3.5-0.7c-4.2-0.7-8.9-1-13.9-1h-42
		c-1,0-2,0.2-2.9,0.7c-1.9,0.9-3.4,2.8-3.7,5L46,100.6l-0.3,1.7c0.6-3.7,3.8-6.5,7.5-6.5H69c30.9,0,55.1-12.5,62.1-48.8
		c0.2-1.1,0.4-2.1,0.5-3.1c-1.8-0.9-3.7-1.8-5.8-2.5C125.4,41.2,124.9,41,124.3,40.9"/>
</g>
</svg>
